<svg xmlns="http://www.w3.org/2000/svg" xmlns:xlink="http://www.w3.org/1999/xlink" width="100" zoomAndPan="magnify" viewBox="0 0 75 74.999997" height="100" preserveAspectRatio="xMidYMid meet" version="1.0"><defs><clipPath id="00bed1bbcf"><path d="M 5.886719 15 L 30 15 L 30 27 L 5.886719 27 Z M 5.886719 15 " clip-rule="nonzero"/></clipPath><clipPath id="aa90274377"><path d="M 5.886719 15 L 17 15 L 17 27 L 5.886719 27 Z M 5.886719 15 " clip-rule="nonzero"/></clipPath><clipPath id="54ac8a358b"><path d="M 24 68 L 36 68 L 36 73.5 L 24 73.5 Z M 24 68 " clip-rule="nonzero"/></clipPath><clipPath id="87f8eb1b52"><path d="M 24 68 L 29 68 L 29 73.5 L 24 73.5 Z M 24 68 " clip-rule="nonzero"/></clipPath><clipPath id="b606a45775"><path d="M 37 57 L 68.886719 57 L 68.886719 73.5 L 37 73.5 Z M 37 57 " clip-rule="nonzero"/></clipPath><clipPath id="241a4a9492"><path d="M 37 52 L 68.886719 52 L 68.886719 63 L 37 63 Z M 37 52 " clip-rule="nonzero"/></clipPath><clipPath id="562a3becb2"><path d="M 37 57 L 43 57 L 43 73.5 L 37 73.5 Z M 37 57 " clip-rule="nonzero"/></clipPath></defs><path fill="#fa6450" d="M 34.765625 36.75 L 53.128906 36.75 L 58.375 31.5 L 53.128906 26.25 L 34.765625 26.25 Z M 34.765625 36.75 " fill-opacity="1" fill-rule="nonzero"/><path fill="#fab400" d="M 34.765625 15.75 L 53.128906 15.75 L 58.375 10.5 L 53.128906 5.25 L 34.765625 5.25 Z M 34.765625 15.75 " fill-opacity="1" fill-rule="nonzero"/><g clip-path="url(#00bed1bbcf)"><path fill="#3cc8b4" d="M 29.515625 15.75 L 11.152344 15.75 L 5.902344 21 L 11.152344 26.25 L 29.515625 26.25 Z M 29.515625 15.75 " fill-opacity="1" fill-rule="nonzero"/></g><path fill="#dc4632" d="M 34.765625 26.25 L 40.011719 26.25 L 40.011719 36.75 L 34.765625 36.75 Z M 34.765625 26.25 " fill-opacity="1" fill-rule="nonzero"/><path fill="#dc9600" d="M 34.765625 5.25 L 40.011719 5.25 L 40.011719 15.75 L 34.765625 15.75 Z M 34.765625 5.25 " fill-opacity="1" fill-rule="nonzero"/><g clip-path="url(#aa90274377)"><path fill="#1eaa96" d="M 16.398438 15.75 L 11.152344 15.75 L 5.902344 21 L 11.152344 26.25 L 16.398438 26.25 L 11.152344 21 Z M 16.398438 15.75 " fill-opacity="1" fill-rule="nonzero"/></g><path fill="#f0f0f0" d="M 29.515625 0 L 34.765625 0 L 34.765625 68.25 L 29.515625 68.25 Z M 29.515625 0 " fill-opacity="1" fill-rule="nonzero"/><path fill="#d2d2d2" d="M 29.515625 0 L 32.140625 0 L 32.140625 68.25 L 29.515625 68.25 Z M 29.515625 0 " fill-opacity="1" fill-rule="nonzero"/><g clip-path="url(#54ac8a358b)"><path fill="#505050" d="M 34.765625 70.875 L 34.765625 68.25 L 24.269531 68.25 L 24.269531 73.5 L 35.492188 73.5 C 35.042969 72.722656 34.765625 71.835938 34.765625 70.875 Z M 34.765625 70.875 " fill-opacity="1" fill-rule="nonzero"/></g><g clip-path="url(#87f8eb1b52)"><path fill="#3c3c3c" d="M 24.269531 68.25 L 28.785156 68.25 L 28.785156 73.5 L 24.269531 73.5 Z M 24.269531 68.25 " fill-opacity="1" fill-rule="nonzero"/></g><g clip-path="url(#b606a45775)"><path fill="#fab400" d="M 40.011719 73.5 L 66.246094 73.5 C 67.699219 73.5 68.871094 72.324219 68.871094 70.875 L 68.871094 57.75 L 37.386719 57.75 L 37.386719 70.875 C 37.386719 72.324219 38.5625 73.5 40.011719 73.5 Z M 40.011719 73.5 " fill-opacity="1" fill-rule="nonzero"/></g><g clip-path="url(#241a4a9492)"><path fill="#505050" d="M 41.324219 63 L 64.9375 63 C 67.109375 63 68.871094 61.238281 68.871094 59.0625 L 68.871094 55.125 C 68.871094 53.675781 67.699219 52.5 66.246094 52.5 L 40.011719 52.5 C 38.5625 52.5 37.386719 53.675781 37.386719 55.125 L 37.386719 59.0625 C 37.386719 61.238281 39.148438 63 41.324219 63 Z M 41.324219 63 " fill-opacity="1" fill-rule="nonzero"/></g><g clip-path="url(#562a3becb2)"><path fill="#dc9600" d="M 40.011719 70.875 L 40.011719 57.75 L 37.386719 57.75 L 37.386719 70.875 C 37.386719 72.324219 38.5625 73.5 40.011719 73.5 L 42.636719 73.5 C 41.183594 73.5 40.011719 72.324219 40.011719 70.875 Z M 40.011719 70.875 " fill-opacity="1" fill-rule="nonzero"/></g><path fill="#3c3c3c" d="M 40.011719 59.0625 L 40.011719 55.125 C 40.011719 53.675781 41.183594 52.5 42.636719 52.5 L 40.011719 52.5 C 38.5625 52.5 37.386719 53.675781 37.386719 55.125 L 37.386719 59.0625 C 37.386719 61.238281 39.148438 63 41.324219 63 L 43.945312 63 C 41.773438 63 40.011719 61.238281 40.011719 59.0625 Z M 40.011719 59.0625 " fill-opacity="1" fill-rule="nonzero"/><path fill="#fab400" d="M 47.882812 49.875 L 47.882812 52.5 L 50.507812 52.5 L 50.507812 49.875 L 55.753906 49.875 L 55.753906 52.5 L 58.375 52.5 L 58.375 49.875 C 58.375 48.425781 57.203125 47.25 55.753906 47.25 L 50.507812 47.25 C 49.054688 47.25 47.882812 48.425781 47.882812 49.875 Z M 47.882812 49.875 " fill-opacity="1" fill-rule="nonzero"/><path fill="#dc9600" d="M 53.128906 47.25 L 50.507812 47.25 C 49.054688 47.25 47.882812 48.425781 47.882812 49.875 L 47.882812 52.5 L 50.507812 52.5 L 50.507812 49.875 C 50.507812 48.425781 51.679688 47.25 53.128906 47.25 Z M 53.128906 47.25 " fill-opacity="1" fill-rule="nonzero"/><path fill="#fa6450" d="M 42.636719 60.375 L 45.257812 60.375 L 45.257812 65.625 L 42.636719 65.625 Z M 42.636719 60.375 " fill-opacity="1" fill-rule="nonzero"/><path fill="#fa6450" d="M 61 60.375 L 63.625 60.375 L 63.625 65.625 L 61 65.625 Z M 61 60.375 " fill-opacity="1" fill-rule="nonzero"/></svg>