<svg xmlns="http://www.w3.org/2000/svg" xmlns:xlink="http://www.w3.org/1999/xlink" width="100" zoomAndPan="magnify" viewBox="0 0 75 74.999997" height="100" preserveAspectRatio="xMidYMid meet" version="1.0"><path fill="#f9a52a" d="M 33.003906 36.328125 C 32.996094 36.1875 32.988281 36.046875 32.976562 35.910156 C 32.976562 35.910156 32.984375 36.066406 33.003906 36.328125 " fill-opacity="1" fill-rule="nonzero"/><path fill="#f9a52a" d="M 33.003906 36.328125 C 33.097656 38.523438 32.402344 41.3125 32.191406 42.097656 C 32.152344 42.25 32.078125 42.390625 31.976562 42.511719 C 30.769531 43.976562 28.011719 45.152344 27.023438 45.539062 C 28.027344 45.296875 30.261719 45.457031 31.535156 45.578125 C 32.039062 45.625 32.5 45.292969 32.625 44.800781 C 32.886719 43.796875 33.394531 42.582031 33.65625 41.992188 C 33.753906 41.769531 33.765625 41.519531 33.695312 41.289062 C 33.296875 39.957031 33.078125 37.34375 33.003906 36.328125 " fill-opacity="1" fill-rule="nonzero"/><path fill="#f9a52a" d="M 27.023438 45.539062 C 26.871094 45.574219 26.75 45.621094 26.664062 45.675781 C 26.664062 45.675781 26.796875 45.625 27.023438 45.539062 " fill-opacity="1" fill-rule="nonzero"/><path fill="#f9a52a" d="M 48.335938 45.675781 C 48.25 45.621094 48.125 45.574219 47.976562 45.539062 C 48.203125 45.625 48.335938 45.675781 48.335938 45.675781 " fill-opacity="1" fill-rule="nonzero"/><path fill="#f9a52a" d="M 23.089844 43.800781 C 23.089844 43.800781 22.742188 43.914062 22.8125 44.117188 C 22.882812 44.320312 23.082031 44.210938 23.296875 44.050781 C 23.507812 43.894531 23.230469 43.734375 23.089844 43.800781 " fill-opacity="1" fill-rule="nonzero"/><path fill="#f9a52a" d="M 41.996094 36.328125 C 42.015625 36.066406 42.023438 35.910156 42.023438 35.910156 C 42.011719 36.046875 42.003906 36.1875 41.996094 36.328125 " fill-opacity="1" fill-rule="nonzero"/><path fill="#f9a52a" d="M 53.394531 43.953125 C 53.277344 44.425781 53 45.222656 52.390625 45.699219 C 52.1875 45.859375 52.128906 46.148438 52.246094 46.378906 C 54.242188 50.382812 48.417969 50.621094 45.988281 50.847656 C 43.167969 51.109375 40.335938 51.242188 37.5 51.253906 C 34.664062 51.242188 31.832031 51.109375 29.011719 50.847656 C 26.582031 50.621094 20.757812 50.382812 22.753906 46.378906 C 22.871094 46.148438 22.8125 45.859375 22.609375 45.699219 C 22 45.222656 21.722656 44.425781 21.605469 43.953125 C 21.566406 43.804688 21.726562 43.683594 21.863281 43.757812 L 22.285156 43.992188 C 22.285156 43.488281 23.128906 43.234375 23.128906 43.234375 C 23.015625 42.964844 22.960938 42.773438 22.945312 42.636719 C 22.925781 42.453125 23.164062 42.363281 23.261719 42.519531 L 24.136719 43.90625 C 24.980469 43.824219 25.652344 44.414062 25.652344 44.414062 C 27.757812 43.402344 29.859375 40.625 29.859375 40.625 C 30.953125 39.109375 30.617188 35.222656 30.617188 35.222656 C 30.421875 33.519531 30.652344 31.515625 32.273438 30.570312 C 32.75 30.289062 33.292969 30.136719 33.839844 30.066406 C 34.617188 29.96875 35.664062 30.070312 35.722656 28.984375 C 35.753906 28.382812 35.347656 27.785156 35.042969 27.304688 C 34.25 26.046875 33.6875 24.378906 34.601562 23.027344 C 34.898438 22.582031 35.445312 22.101562 35.417969 21.515625 C 35.363281 20.398438 36.4375 19.777344 37.5 19.757812 C 38.5625 19.777344 39.636719 20.398438 39.582031 21.515625 C 39.554688 22.101562 40.101562 22.582031 40.398438 23.027344 C 41.308594 24.378906 40.75 26.046875 39.957031 27.304688 C 39.652344 27.785156 39.246094 28.382812 39.277344 28.984375 C 39.335938 30.070312 40.382812 29.96875 41.160156 30.066406 C 41.707031 30.136719 42.25 30.289062 42.726562 30.570312 C 44.351562 31.515625 44.578125 33.519531 44.382812 35.222656 C 44.382812 35.222656 44.042969 39.109375 45.140625 40.625 C 45.140625 40.625 47.242188 43.402344 49.347656 44.414062 C 49.347656 44.414062 50.019531 43.824219 50.863281 43.90625 L 51.738281 42.519531 C 51.835938 42.363281 52.074219 42.453125 52.054688 42.636719 C 52.039062 42.773438 51.984375 42.964844 51.871094 43.234375 C 51.871094 43.234375 52.714844 43.488281 52.714844 43.992188 L 53.136719 43.757812 C 53.273438 43.683594 53.433594 43.804688 53.394531 43.953125 Z M 56.988281 38.375 L 75 36.945312 L 56.953125 36.0625 L 74.667969 32.511719 L 56.644531 33.769531 L 73.816406 28.148438 L 56.066406 31.53125 L 72.453125 23.917969 L 55.230469 29.375 L 70.597656 19.875 L 54.140625 27.332031 L 68.28125 16.085938 L 52.820312 25.433594 L 65.527344 12.59375 L 51.285156 23.707031 L 62.382812 9.449219 L 49.554688 22.167969 L 58.890625 6.703125 L 47.652344 20.851562 L 55.09375 4.386719 L 45.609375 19.765625 L 51.050781 2.535156 L 43.453125 18.929688 L 46.820312 1.175781 L 41.214844 18.351562 L 42.457031 0.328125 L 38.921875 18.046875 L 38.023438 0 L 36.609375 18.011719 L 33.582031 0.199219 L 34.308594 18.253906 L 29.195312 0.925781 L 32.050781 18.765625 L 24.925781 2.160156 L 29.871094 19.539062 L 20.832031 3.894531 L 27.796875 20.566406 L 16.972656 6.101562 L 25.859375 21.828125 L 13.402344 8.746094 L 24.085938 23.316406 L 10.167969 11.796875 L 22.5 25 L 7.316406 15.207031 L 21.125 26.859375 L 4.890625 18.933594 L 19.980469 28.867188 L 2.921875 22.917969 L 19.082031 31 L 1.4375 27.109375 L 18.4375 33.222656 L 0.460938 31.445312 L 18.0625 35.503906 L 0 35.867188 L 17.960938 37.816406 L 0.0703125 40.3125 L 18.132812 40.121094 L 0.660156 44.714844 L 18.578125 42.390625 L 1.773438 49.019531 L 19.289062 44.59375 L 3.382812 53.164062 L 20.253906 46.695312 L 5.472656 57.089844 L 21.460938 48.667969 L 8.011719 60.738281 L 22.890625 50.488281 L 10.964844 64.058594 L 24.527344 52.121094 L 14.289062 67.007812 L 26.34375 53.550781 L 17.941406 69.546875 L 28.320312 54.757812 L 21.867188 71.632812 L 30.421875 55.71875 L 26.011719 73.238281 L 32.625 56.425781 L 30.316406 74.34375 L 34.898438 56.867188 L 34.722656 74.933594 L 37.203125 57.039062 L 39.167969 75 L 39.515625 56.933594 L 43.589844 74.535156 L 41.796875 56.558594 L 47.925781 73.554688 L 44.019531 55.914062 L 52.113281 72.066406 L 46.148438 55.011719 L 56.097656 70.09375 L 48.15625 53.863281 L 59.820312 67.664062 L 50.015625 52.488281 L 63.230469 64.808594 L 51.699219 50.902344 L 66.277344 61.574219 L 53.179688 49.125 L 68.917969 58 L 54.445312 47.1875 L 71.121094 54.136719 L 55.46875 45.113281 L 72.851562 50.042969 L 56.242188 42.933594 L 74.085938 45.773438 L 56.75 40.675781 L 74.804688 41.386719 L 56.988281 38.375 " fill-opacity="1" fill-rule="nonzero"/><path fill="#f9a52a" d="M 43.023438 42.511719 C 42.921875 42.390625 42.847656 42.25 42.808594 42.097656 C 42.597656 41.3125 41.902344 38.523438 41.996094 36.328125 C 41.921875 37.34375 41.703125 39.957031 41.304688 41.289062 C 41.234375 41.519531 41.246094 41.769531 41.34375 41.992188 C 41.605469 42.582031 42.113281 43.796875 42.375 44.800781 C 42.5 45.292969 42.960938 45.625 43.464844 45.578125 C 44.738281 45.457031 46.972656 45.296875 47.976562 45.539062 C 46.988281 45.152344 44.230469 43.976562 43.023438 42.511719 " fill-opacity="1" fill-rule="nonzero"/><path fill="#f9a52a" d="M 51.910156 43.800781 C 51.769531 43.734375 51.492188 43.894531 51.703125 44.050781 C 51.917969 44.210938 52.117188 44.320312 52.1875 44.117188 C 52.257812 43.914062 51.910156 43.800781 51.910156 43.800781 " fill-opacity="1" fill-rule="nonzero"/></svg>