<svg xmlns="http://www.w3.org/2000/svg" xmlns:xlink="http://www.w3.org/1999/xlink" width="100" zoomAndPan="magnify" viewBox="0 0 75 74.999997" height="100" preserveAspectRatio="xMidYMid meet" version="1.0"><defs><clipPath id="48e99cd449"><path d="M 0 4 L 75 4 L 75 72.328125 L 0 72.328125 Z M 0 4 " clip-rule="nonzero"/></clipPath><clipPath id="f379e97a7f"><path d="M 2 64 L 10 64 L 10 72.328125 L 2 72.328125 Z M 2 64 " clip-rule="nonzero"/></clipPath><clipPath id="967ae26c7a"><path d="M 31 11 L 43 11 L 43 72.328125 L 31 72.328125 Z M 31 11 " clip-rule="nonzero"/></clipPath></defs><path fill="#ea6d7a" d="M 16.839844 56.167969 C 20.492188 59.902344 24.328125 63.183594 27.816406 65.816406 C 29.289062 66.929688 32.375 69.210938 34.671875 70.898438 C 36.351562 72.136719 38.644531 72.136719 40.328125 70.898438 C 42.628906 69.210938 45.726562 66.929688 47.199219 65.816406 C 58.1875 57.53125 72.597656 42.773438 74.03125 27.941406 C 74.945312 18.460938 69.984375 8.65625 60.675781 5.453125 C 53.359375 2.933594 42.269531 5.359375 37.519531 12.058594 L 37.496094 12.058594 C 32.742188 5.359375 21.65625 2.933594 14.34375 5.453125 C 5.03125 8.65625 0.0703125 18.460938 0.988281 27.941406 C 1.8125 36.472656 6.929688 44.980469 13.222656 52.246094 Z M 16.839844 56.167969 " fill-opacity="1" fill-rule="nonzero"/><g clip-path="url(#48e99cd449)"><path fill="#3a312a" d="M 37.5 72.328125 C 36.40625 72.328125 35.308594 71.984375 34.375 71.296875 C 32.109375 69.628906 28.996094 67.324219 27.515625 66.210938 C 23.671875 63.308594 19.855469 59.957031 16.484375 56.515625 C 16.296875 56.320312 16.296875 56.007812 16.492188 55.816406 C 16.691406 55.625 17.003906 55.628906 17.195312 55.824219 C 20.53125 59.230469 24.308594 62.550781 28.113281 65.421875 C 29.589844 66.535156 32.699219 68.835938 34.964844 70.5 C 36.480469 71.617188 38.519531 71.617188 40.035156 70.503906 C 42.363281 68.789062 45.445312 66.519531 46.902344 65.421875 C 58.898438 56.375 72.195312 41.765625 73.539062 27.894531 C 73.984375 23.261719 72.996094 18.535156 70.757812 14.585938 C 68.386719 10.40625 64.84375 7.410156 60.511719 5.917969 C 53.65625 3.558594 42.695312 5.617188 37.925781 12.34375 C 37.832031 12.472656 37.679688 12.550781 37.519531 12.550781 C 37.359375 12.550781 37.183594 12.472656 37.089844 12.34375 C 32.320312 5.617188 21.359375 3.558594 14.503906 5.917969 C 10.171875 7.410156 6.632812 10.40625 4.261719 14.585938 C 2.019531 18.535156 1.03125 23.265625 1.480469 27.894531 C 2.195312 35.285156 6.382812 43.59375 13.597656 51.925781 C 13.777344 52.128906 13.753906 52.441406 13.546875 52.621094 C 13.339844 52.800781 13.027344 52.777344 12.847656 52.570312 C 5.5 44.085938 1.226562 35.585938 0.492188 27.992188 C 0.0273438 23.160156 1.058594 18.226562 3.398438 14.097656 C 5.890625 9.707031 9.617188 6.554688 14.179688 4.984375 C 21.1875 2.574219 32.300781 4.582031 37.507812 11.246094 C 42.714844 4.582031 53.828125 2.574219 60.835938 4.984375 C 65.398438 6.554688 69.125 9.707031 71.617188 14.097656 C 73.957031 18.226562 74.992188 23.160156 74.523438 27.992188 C 73.867188 34.777344 70.523438 42.0625 64.589844 49.636719 C 58.445312 57.476562 51.246094 63.386719 47.5 66.210938 C 46.039062 67.3125 42.953125 69.585938 40.625 71.296875 C 39.6875 71.984375 38.59375 72.328125 37.5 72.328125 Z M 37.5 72.328125 " fill-opacity="1" fill-rule="nonzero"/></g><path fill="#d7e057" d="M 13.078125 59.835938 C 13.078125 59.835938 14.203125 64.007812 17.441406 64.199219 C 17.441406 64.199219 13.117188 65.691406 13.042969 68.878906 C 13.042969 68.878906 12.191406 64.40625 8.777344 64.246094 C 8.777344 64.246094 12.753906 63.644531 13.078125 59.835938 Z M 13.078125 59.835938 " fill-opacity="1" fill-rule="nonzero"/><path fill="#3a312a" d="M 13.042969 69.375 C 12.808594 69.375 12.601562 69.207031 12.558594 68.972656 C 12.550781 68.933594 11.734375 64.878906 8.753906 64.742188 C 8.5 64.726562 8.296875 64.527344 8.285156 64.273438 C 8.269531 64.019531 8.453125 63.796875 8.703125 63.757812 C 8.851562 63.734375 12.300781 63.160156 12.582031 59.792969 C 12.605469 59.554688 12.792969 59.363281 13.03125 59.34375 C 13.273438 59.324219 13.492188 59.472656 13.554688 59.703125 C 13.566406 59.742188 14.628906 63.535156 17.46875 63.707031 C 17.707031 63.71875 17.898438 63.898438 17.929688 64.132812 C 17.960938 64.363281 17.824219 64.589844 17.601562 64.667969 C 17.5625 64.679688 13.601562 66.085938 13.539062 68.890625 C 13.535156 69.144531 13.339844 69.351562 13.085938 69.371094 C 13.070312 69.375 13.058594 69.375 13.042969 69.375 Z M 10.488281 64.191406 C 11.769531 64.839844 12.546875 66.082031 12.992188 67.117188 C 13.660156 65.789062 14.953125 64.878906 15.945312 64.339844 C 14.582031 63.730469 13.707031 62.476562 13.195312 61.464844 C 12.605469 62.902344 11.457031 63.726562 10.488281 64.191406 Z M 10.488281 64.191406 " fill-opacity="1" fill-rule="nonzero"/><path fill="#d7e057" d="M 5.917969 65.429688 C 5.917969 65.429688 6.710938 68.378906 9.003906 68.515625 C 9.003906 68.515625 5.945312 69.574219 5.894531 71.828125 C 5.894531 71.828125 5.292969 68.664062 2.875 68.550781 C 2.875 68.550781 5.6875 68.125 5.917969 65.429688 Z M 5.917969 65.429688 " fill-opacity="1" fill-rule="nonzero"/><g clip-path="url(#f379e97a7f)"><path fill="#3a312a" d="M 5.894531 72.324219 C 5.65625 72.324219 5.453125 72.15625 5.40625 71.921875 C 5.402344 71.894531 4.84375 69.136719 2.851562 69.046875 C 2.597656 69.03125 2.394531 68.832031 2.382812 68.578125 C 2.367188 68.324219 2.550781 68.101562 2.800781 68.0625 C 2.898438 68.046875 5.230469 67.652344 5.421875 65.386719 C 5.441406 65.148438 5.632812 64.957031 5.871094 64.9375 C 6.109375 64.917969 6.332031 65.070312 6.394531 65.300781 C 6.402344 65.328125 7.128906 67.910156 9.03125 68.023438 C 9.265625 68.039062 9.460938 68.214844 9.492188 68.449219 C 9.523438 68.683594 9.386719 68.90625 9.164062 68.984375 C 9.136719 68.992188 6.429688 69.957031 6.386719 71.839844 C 6.382812 72.09375 6.1875 72.300781 5.933594 72.320312 C 5.921875 72.320312 5.90625 72.324219 5.894531 72.324219 Z M 4.402344 68.523438 C 5.097656 68.964844 5.5625 69.640625 5.867188 70.265625 C 6.324219 69.527344 7.027344 68.988281 7.640625 68.625 C 6.882812 68.207031 6.355469 67.519531 6.007812 66.902344 C 5.621094 67.65625 5.011719 68.179688 4.402344 68.523438 Z M 4.402344 68.523438 " fill-opacity="1" fill-rule="nonzero"/></g><path fill="#d7e057" d="M 5.917969 56.644531 C 5.917969 56.644531 6.710938 59.59375 9.003906 59.734375 C 9.003906 59.734375 5.945312 60.789062 5.894531 63.042969 C 5.894531 63.042969 5.292969 59.878906 2.875 59.765625 C 2.875 59.765625 5.6875 59.339844 5.917969 56.644531 Z M 5.917969 56.644531 " fill-opacity="1" fill-rule="nonzero"/><path fill="#3a312a" d="M 5.894531 63.539062 C 5.65625 63.539062 5.453125 63.371094 5.40625 63.136719 C 5.402344 63.109375 4.84375 60.351562 2.851562 60.261719 C 2.597656 60.246094 2.394531 60.046875 2.382812 59.792969 C 2.367188 59.539062 2.550781 59.316406 2.800781 59.277344 C 2.898438 59.261719 5.230469 58.867188 5.421875 56.601562 C 5.441406 56.363281 5.632812 56.171875 5.871094 56.152344 C 6.109375 56.132812 6.332031 56.285156 6.394531 56.515625 C 6.402344 56.542969 7.128906 59.125 9.03125 59.238281 C 9.265625 59.253906 9.460938 59.433594 9.492188 59.664062 C 9.523438 59.898438 9.386719 60.121094 9.164062 60.199219 C 9.136719 60.210938 6.429688 61.171875 6.386719 63.054688 C 6.382812 63.308594 6.1875 63.515625 5.933594 63.535156 C 5.921875 63.535156 5.90625 63.539062 5.894531 63.539062 Z M 4.402344 59.738281 C 5.097656 60.179688 5.5625 60.855469 5.867188 61.480469 C 6.324219 60.742188 7.027344 60.203125 7.640625 59.839844 C 6.882812 59.421875 6.355469 58.734375 6.007812 58.117188 C 5.621094 58.871094 5.011719 59.394531 4.402344 59.738281 Z M 4.402344 59.738281 " fill-opacity="1" fill-rule="nonzero"/><g clip-path="url(#967ae26c7a)"><path fill="#3a312a" d="M 37.519531 72.320312 C 37.292969 72.320312 37.089844 72.167969 37.035156 71.941406 L 32.902344 54.25 C 32.859375 54.070312 32.917969 53.886719 33.054688 53.765625 L 41.003906 46.78125 L 31.632812 30.324219 C 31.566406 30.207031 31.550781 30.066406 31.589844 29.9375 L 36.945312 11.8125 C 37.023438 11.550781 37.296875 11.402344 37.558594 11.480469 C 37.820312 11.558594 37.972656 11.832031 37.894531 12.09375 L 32.597656 30.019531 L 42.0625 46.640625 C 42.179688 46.847656 42.136719 47.101562 41.960938 47.257812 L 33.933594 54.3125 L 38 71.714844 C 38.0625 71.980469 37.898438 72.246094 37.628906 72.308594 C 37.59375 72.316406 37.554688 72.320312 37.519531 72.320312 Z M 37.519531 72.320312 " fill-opacity="1" fill-rule="nonzero"/></g><path fill="#f6e2c6" d="M 39.726562 29.96875 L 19.359375 29.96875 C 15.714844 29.96875 12.757812 32.921875 12.757812 36.5625 L 12.757812 39.746094 C 12.757812 43.386719 15.714844 46.335938 19.359375 46.335938 L 55.65625 46.335938 C 59.304688 46.335938 62.257812 43.386719 62.257812 39.746094 L 62.257812 36.5625 C 62.257812 32.921875 59.304688 29.96875 55.65625 29.96875 Z M 39.726562 29.96875 " fill-opacity="1" fill-rule="nonzero"/><path fill="#3a312a" d="M 55.65625 46.832031 L 19.359375 46.832031 C 15.445312 46.832031 12.261719 43.652344 12.261719 39.746094 L 12.261719 36.5625 C 12.261719 32.65625 15.445312 29.476562 19.359375 29.476562 L 39.726562 29.476562 C 40 29.476562 40.21875 29.695312 40.21875 29.96875 C 40.21875 30.242188 40 30.464844 39.726562 30.464844 L 19.359375 30.464844 C 15.992188 30.464844 13.253906 33.199219 13.253906 36.5625 L 13.253906 39.746094 C 13.253906 43.105469 15.992188 45.84375 19.359375 45.84375 L 55.65625 45.84375 C 59.023438 45.84375 61.761719 43.105469 61.761719 39.746094 L 61.761719 36.5625 C 61.761719 33.199219 59.023438 30.464844 55.65625 30.464844 L 45.300781 30.464844 C 45.027344 30.464844 44.804688 30.242188 44.804688 29.96875 C 44.804688 29.695312 45.027344 29.476562 45.300781 29.476562 L 55.65625 29.476562 C 59.570312 29.476562 62.753906 32.65625 62.753906 36.5625 L 62.753906 39.746094 C 62.753906 43.652344 59.570312 46.832031 55.65625 46.832031 Z M 55.65625 46.832031 " fill-opacity="1" fill-rule="nonzero"/><path fill="#3a312a" d="M 52.058594 46.832031 C 51.785156 46.832031 51.5625 46.609375 51.5625 46.335938 L 51.5625 29.96875 C 51.5625 29.695312 51.785156 29.476562 52.058594 29.476562 C 52.332031 29.476562 52.550781 29.695312 52.550781 29.96875 L 52.550781 46.335938 C 52.550781 46.609375 52.332031 46.832031 52.058594 46.832031 Z M 52.058594 46.832031 " fill-opacity="1" fill-rule="nonzero"/><path fill="#3a312a" d="M 22.960938 46.832031 C 22.6875 46.832031 22.464844 46.609375 22.464844 46.335938 L 22.464844 29.96875 C 22.464844 29.695312 22.6875 29.476562 22.960938 29.476562 C 23.234375 29.476562 23.453125 29.695312 23.453125 29.96875 L 23.453125 46.335938 C 23.453125 46.609375 23.234375 46.832031 22.960938 46.832031 Z M 22.960938 46.832031 " fill-opacity="1" fill-rule="nonzero"/><path fill="#87796f" d="M 32.347656 34.859375 C 32.347656 35.808594 31.578125 36.578125 30.628906 36.578125 C 29.679688 36.578125 28.910156 35.808594 28.910156 34.859375 C 28.910156 33.914062 29.679688 33.144531 30.628906 33.144531 C 31.578125 33.144531 32.347656 33.914062 32.347656 34.859375 Z M 32.347656 34.859375 " fill-opacity="1" fill-rule="nonzero"/><path fill="#3a312a" d="M 30.628906 37.074219 C 29.40625 37.074219 28.414062 36.082031 28.414062 34.859375 C 28.414062 33.640625 29.40625 32.648438 30.628906 32.648438 C 31.847656 32.648438 32.84375 33.640625 32.84375 34.859375 C 32.84375 36.082031 31.847656 37.074219 30.628906 37.074219 Z M 30.628906 33.636719 C 29.953125 33.636719 29.402344 34.1875 29.402344 34.859375 C 29.402344 35.535156 29.953125 36.085938 30.628906 36.085938 C 31.304688 36.085938 31.851562 35.535156 31.851562 34.859375 C 31.851562 34.1875 31.304688 33.636719 30.628906 33.636719 Z M 30.628906 33.636719 " fill-opacity="1" fill-rule="nonzero"/><path fill="#87796f" d="M 39.226562 34.859375 C 39.226562 35.808594 38.457031 36.578125 37.507812 36.578125 C 36.558594 36.578125 35.789062 35.808594 35.789062 34.859375 C 35.789062 33.914062 36.558594 33.144531 37.507812 33.144531 C 38.457031 33.144531 39.226562 33.914062 39.226562 34.859375 Z M 39.226562 34.859375 " fill-opacity="1" fill-rule="nonzero"/><path fill="#3a312a" d="M 37.507812 37.074219 C 36.285156 37.074219 35.292969 36.082031 35.292969 34.859375 C 35.292969 33.640625 36.285156 32.648438 37.507812 32.648438 C 38.730469 32.648438 39.722656 33.640625 39.722656 34.859375 C 39.722656 36.082031 38.730469 37.074219 37.507812 37.074219 Z M 37.507812 33.636719 C 36.832031 33.636719 36.285156 34.1875 36.285156 34.859375 C 36.285156 35.535156 36.832031 36.085938 37.507812 36.085938 C 38.183594 36.085938 38.734375 35.535156 38.734375 34.859375 C 38.734375 34.1875 38.183594 33.636719 37.507812 33.636719 Z M 37.507812 33.636719 " fill-opacity="1" fill-rule="nonzero"/><path fill="#87796f" d="M 46.109375 34.859375 C 46.109375 35.808594 45.339844 36.578125 44.386719 36.578125 C 43.4375 36.578125 42.667969 35.808594 42.667969 34.859375 C 42.667969 33.914062 43.4375 33.144531 44.386719 33.144531 C 45.339844 33.144531 46.109375 33.914062 46.109375 34.859375 Z M 46.109375 34.859375 " fill-opacity="1" fill-rule="nonzero"/><path fill="#3a312a" d="M 44.386719 37.074219 C 43.167969 37.074219 42.171875 36.082031 42.171875 34.859375 C 42.171875 33.640625 43.167969 32.648438 44.386719 32.648438 C 45.609375 32.648438 46.601562 33.640625 46.601562 34.859375 C 46.601562 36.082031 45.609375 37.074219 44.386719 37.074219 Z M 44.386719 33.636719 C 43.714844 33.636719 43.164062 34.1875 43.164062 34.859375 C 43.164062 35.535156 43.714844 36.085938 44.386719 36.085938 C 45.0625 36.085938 45.613281 35.535156 45.613281 34.859375 C 45.613281 34.1875 45.0625 33.636719 44.386719 33.636719 Z M 44.386719 33.636719 " fill-opacity="1" fill-rule="nonzero"/><path fill="#87796f" d="M 32.347656 41.445312 C 32.347656 42.394531 31.578125 43.164062 30.628906 43.164062 C 29.679688 43.164062 28.910156 42.394531 28.910156 41.445312 C 28.910156 40.496094 29.679688 39.726562 30.628906 39.726562 C 31.578125 39.726562 32.347656 40.496094 32.347656 41.445312 Z M 32.347656 41.445312 " fill-opacity="1" fill-rule="nonzero"/><path fill="#3a312a" d="M 30.628906 43.65625 C 29.40625 43.65625 28.414062 42.664062 28.414062 41.445312 C 28.414062 40.226562 29.40625 39.234375 30.628906 39.234375 C 31.847656 39.234375 32.84375 40.226562 32.84375 41.445312 C 32.84375 42.664062 31.847656 43.65625 30.628906 43.65625 Z M 30.628906 40.222656 C 29.953125 40.222656 29.402344 40.769531 29.402344 41.445312 C 29.402344 42.121094 29.953125 42.667969 30.628906 42.667969 C 31.304688 42.667969 31.851562 42.121094 31.851562 41.445312 C 31.851562 40.769531 31.304688 40.222656 30.628906 40.222656 Z M 30.628906 40.222656 " fill-opacity="1" fill-rule="nonzero"/><path fill="#87796f" d="M 39.226562 41.445312 C 39.226562 42.394531 38.457031 43.164062 37.507812 43.164062 C 36.558594 43.164062 35.789062 42.394531 35.789062 41.445312 C 35.789062 40.496094 36.558594 39.726562 37.507812 39.726562 C 38.457031 39.726562 39.226562 40.496094 39.226562 41.445312 Z M 39.226562 41.445312 " fill-opacity="1" fill-rule="nonzero"/><path fill="#3a312a" d="M 37.507812 43.65625 C 36.285156 43.65625 35.292969 42.664062 35.292969 41.445312 C 35.292969 40.226562 36.285156 39.234375 37.507812 39.234375 C 38.730469 39.234375 39.722656 40.226562 39.722656 41.445312 C 39.722656 42.664062 38.730469 43.65625 37.507812 43.65625 Z M 37.507812 40.222656 C 36.832031 40.222656 36.285156 40.769531 36.285156 41.445312 C 36.285156 42.121094 36.832031 42.667969 37.507812 42.667969 C 38.183594 42.667969 38.734375 42.121094 38.734375 41.445312 C 38.734375 40.769531 38.183594 40.222656 37.507812 40.222656 Z M 37.507812 40.222656 " fill-opacity="1" fill-rule="nonzero"/><path fill="#87796f" d="M 46.109375 41.445312 C 46.109375 42.394531 45.339844 43.164062 44.386719 43.164062 C 43.4375 43.164062 42.667969 42.394531 42.667969 41.445312 C 42.667969 40.496094 43.4375 39.726562 44.386719 39.726562 C 45.339844 39.726562 46.109375 40.496094 46.109375 41.445312 Z M 46.109375 41.445312 " fill-opacity="1" fill-rule="nonzero"/><path fill="#3a312a" d="M 44.386719 43.65625 C 43.167969 43.65625 42.171875 42.664062 42.171875 41.445312 C 42.171875 40.226562 43.167969 39.234375 44.386719 39.234375 C 45.609375 39.234375 46.601562 40.226562 46.601562 41.445312 C 46.601562 42.664062 45.609375 43.65625 44.386719 43.65625 Z M 44.386719 40.222656 C 43.714844 40.222656 43.164062 40.769531 43.164062 41.445312 C 43.164062 42.121094 43.714844 42.667969 44.386719 42.667969 C 45.0625 42.667969 45.613281 42.121094 45.613281 41.445312 C 45.613281 40.769531 45.0625 40.222656 44.386719 40.222656 Z M 44.386719 40.222656 " fill-opacity="1" fill-rule="nonzero"/><path fill="#d34e5c" d="M 73.539062 27.894531 C 72.199219 41.765625 58.898438 56.375 46.902344 65.421875 C 45.445312 66.519531 42.363281 68.792969 40.035156 70.503906 C 39.394531 70.972656 38.65625 71.242188 37.90625 71.316406 L 37.332031 68.847656 C 39.121094 67.53125 40.933594 66.1875 41.953125 65.421875 C 53.949219 56.375 67.246094 41.765625 68.585938 27.894531 C 69.035156 23.265625 68.046875 18.539062 65.804688 14.585938 C 63.4375 10.40625 59.890625 7.410156 55.5625 5.917969 C 54.429688 5.53125 53.1875 5.261719 51.875 5.117188 C 54.96875 4.785156 58.015625 5.058594 60.511719 5.917969 C 64.839844 7.410156 68.386719 10.40625 70.753906 14.585938 C 72.996094 18.539062 73.984375 23.265625 73.539062 27.894531 Z M 73.539062 27.894531 " fill-opacity="1" fill-rule="nonzero"/></svg>