<svg xmlns="http://www.w3.org/2000/svg" xmlns:xlink="http://www.w3.org/1999/xlink" width="100" zoomAndPan="magnify" viewBox="0 0 75 74.999997" height="100" preserveAspectRatio="xMidYMid meet" version="1.0"><path fill="#ff003b" d="M 59.585938 45.15625 L 59.585938 72.769531 C 59.585938 74.597656 58.105469 76.089844 56.261719 76.089844 L 18.9375 76.089844 C 17.105469 76.089844 15.613281 74.609375 15.613281 72.769531 L 15.613281 45.15625 C 28.929688 54.148438 43.585938 54.148438 59.585938 45.15625 Z M 59.585938 45.15625 " fill-opacity="1" fill-rule="nonzero"/><path fill="#ffffff" d="M 26.621094 65.660156 C 26.210938 65.5 25.664062 65.335938 25.011719 65.183594 C 24.488281 65.066406 24.089844 64.960938 23.8125 64.859375 C 23.53125 64.753906 23.285156 64.613281 23.097656 64.4375 C 22.914062 64.261719 22.832031 64.042969 22.832031 63.761719 C 22.832031 63.34375 23.019531 63.015625 23.414062 62.785156 C 23.8125 62.539062 24.347656 62.421875 24.988281 62.421875 C 25.675781 62.421875 26.339844 62.527344 26.980469 62.761719 C 27.074219 62.796875 27.15625 62.820312 27.214844 62.820312 C 27.390625 62.820312 27.53125 62.75 27.648438 62.621094 C 27.75 62.492188 27.808594 62.351562 27.808594 62.199219 C 27.808594 61.910156 27.671875 61.710938 27.402344 61.617188 C 26.65625 61.339844 25.804688 61.199219 24.871094 61.199219 C 24.171875 61.199219 23.566406 61.316406 23.074219 61.546875 C 22.574219 61.78125 22.191406 62.109375 21.933594 62.503906 C 21.675781 62.898438 21.546875 63.355469 21.546875 63.84375 C 21.546875 64.402344 21.710938 64.871094 22.027344 65.207031 C 22.328125 65.546875 22.703125 65.789062 23.132812 65.964844 C 23.554688 66.128906 24.089844 66.289062 24.789062 66.476562 C 25.316406 66.617188 25.699219 66.722656 25.96875 66.816406 C 26.234375 66.90625 26.457031 67.035156 26.644531 67.199219 C 26.820312 67.351562 26.902344 67.539062 26.902344 67.769531 C 26.902344 68.691406 26.210938 69.132812 24.789062 69.132812 C 23.925781 69.132812 23.097656 68.96875 22.351562 68.632812 C 22.273438 68.597656 22.179688 68.574219 22.085938 68.574219 C 21.910156 68.574219 21.757812 68.644531 21.652344 68.761719 C 21.546875 68.878906 21.492188 69.027344 21.492188 69.179688 C 21.492188 69.308594 21.523438 69.425781 21.605469 69.53125 C 21.675781 69.632812 21.78125 69.714844 21.898438 69.761719 C 22.832031 70.160156 23.84375 70.367188 24.917969 70.367188 C 25.558594 70.367188 26.132812 70.265625 26.632812 70.042969 C 27.132812 69.820312 27.53125 69.53125 27.796875 69.144531 C 28.078125 68.761719 28.21875 68.316406 28.21875 67.828125 C 28.21875 67.246094 28.066406 66.769531 27.761719 66.417969 C 27.402344 66.082031 27.039062 65.824219 26.621094 65.660156 Z M 26.621094 65.660156 " fill-opacity="1" fill-rule="nonzero"/><path fill="#ffffff" d="M 35.085938 61.316406 L 28.835938 61.316406 C 28.660156 61.316406 28.519531 61.375 28.40625 61.5 C 28.289062 61.617188 28.230469 61.769531 28.230469 61.945312 C 28.230469 62.121094 28.289062 62.257812 28.40625 62.375 C 28.519531 62.492188 28.671875 62.550781 28.835938 62.550781 L 31.320312 62.550781 L 31.320312 69.65625 C 31.320312 69.832031 31.378906 69.996094 31.507812 70.113281 C 31.625 70.242188 31.785156 70.296875 31.960938 70.296875 C 32.148438 70.296875 32.300781 70.230469 32.425781 70.113281 C 32.554688 69.984375 32.625 69.832031 32.625 69.65625 L 32.625 62.550781 L 35.097656 62.550781 C 35.273438 62.550781 35.414062 62.492188 35.542969 62.375 C 35.65625 62.257812 35.726562 62.109375 35.726562 61.945312 C 35.726562 61.78125 35.667969 61.617188 35.542969 61.5 C 35.414062 61.375 35.261719 61.316406 35.085938 61.316406 Z M 35.085938 61.316406 " fill-opacity="1" fill-rule="nonzero"/><path fill="#ffffff" d="M 42.933594 61.769531 C 42.269531 61.375 41.476562 61.175781 40.589844 61.175781 C 39.703125 61.175781 38.910156 61.375 38.234375 61.769531 C 37.558594 62.164062 37.035156 62.714844 36.671875 63.402344 C 36.3125 64.089844 36.113281 64.878906 36.101562 65.777344 C 36.125 66.664062 36.3125 67.46875 36.671875 68.144531 C 37.035156 68.832031 37.558594 69.378906 38.234375 69.773438 C 38.910156 70.171875 39.703125 70.367188 40.589844 70.367188 C 41.476562 70.367188 42.269531 70.171875 42.933594 69.773438 C 43.597656 69.378906 44.125 68.832031 44.496094 68.144531 C 44.871094 67.457031 45.054688 66.652344 45.078125 65.777344 C 45.066406 64.902344 44.871094 64.101562 44.496094 63.414062 C 44.125 62.714844 43.597656 62.164062 42.933594 61.769531 Z M 40.589844 69.121094 C 39.925781 69.121094 39.355469 68.96875 38.886719 68.679688 C 38.410156 68.386719 38.046875 67.992188 37.792969 67.480469 C 37.535156 66.976562 37.40625 66.394531 37.40625 65.765625 C 37.40625 65.136719 37.535156 64.542969 37.792969 64.042969 C 38.035156 63.539062 38.410156 63.144531 38.886719 62.851562 C 39.367188 62.5625 39.9375 62.410156 40.589844 62.410156 C 41.242188 62.410156 41.8125 62.5625 42.292969 62.851562 C 42.769531 63.144531 43.144531 63.539062 43.386719 64.042969 C 43.644531 64.542969 43.773438 65.125 43.773438 65.765625 C 43.773438 66.394531 43.644531 66.976562 43.386719 67.492188 C 43.132812 67.992188 42.769531 68.398438 42.292969 68.691406 C 41.8125 68.980469 41.242188 69.121094 40.589844 69.121094 Z M 40.589844 69.121094 " fill-opacity="1" fill-rule="nonzero"/><path fill="#ffffff" d="M 53.441406 62.785156 C 53.21875 62.351562 52.832031 61.992188 52.320312 61.722656 C 51.808594 61.457031 51.144531 61.316406 50.339844 61.316406 L 47.46875 61.316406 C 47.28125 61.316406 47.132812 61.386719 47.003906 61.511719 C 46.875 61.640625 46.816406 61.792969 46.816406 61.980469 L 46.816406 69.65625 C 46.816406 69.84375 46.875 69.996094 47.003906 70.113281 C 47.121094 70.242188 47.28125 70.296875 47.457031 70.296875 C 47.644531 70.296875 47.796875 70.230469 47.925781 70.113281 C 48.050781 69.984375 48.121094 69.832031 48.121094 69.65625 L 48.121094 67.058594 L 50.328125 67.058594 C 51.132812 67.058594 51.796875 66.917969 52.308594 66.652344 C 52.820312 66.371094 53.195312 66.023438 53.429688 65.589844 C 53.648438 65.160156 53.765625 64.695312 53.765625 64.195312 C 53.765625 63.679688 53.660156 63.214844 53.441406 62.785156 Z M 52.460938 64.183594 C 52.460938 64.648438 52.296875 65.03125 51.96875 65.335938 C 51.632812 65.648438 51.050781 65.800781 50.222656 65.800781 L 48.132812 65.800781 L 48.132812 62.5625 L 50.222656 62.5625 C 51.050781 62.5625 51.632812 62.714844 51.96875 63.027344 C 52.296875 63.332031 52.460938 63.714844 52.460938 64.183594 Z M 52.460938 64.183594 " fill-opacity="1" fill-rule="nonzero"/><path fill="#000000" d="M 56.203125 48.21875 L 56.203125 56.363281 C 56.203125 64.777344 49.382812 71.582031 40.976562 71.582031 L 16.78125 71.582031 L 16.78125 72.769531 C 16.78125 73.957031 17.746094 74.925781 18.9375 74.925781 L 56.273438 74.925781 C 57.460938 74.925781 58.429688 73.957031 58.429688 72.769531 L 58.429688 47.113281 C 57.683594 47.507812 56.9375 47.859375 56.203125 48.21875 Z M 56.203125 48.21875 " fill-opacity="0.1" fill-rule="nonzero"/><path fill="#ffffff" d="M 59.585938 45.15625 L 59.585938 49.78125 C 57.636719 52.449219 56.355469 55.605469 55.980469 58.890625 C 55.84375 60.171875 55.761719 61.617188 54.78125 62.457031 C 53.507812 63.550781 51.492188 62.980469 49.976562 63.679688 C 47.902344 64.625 47.5625 67.375 46.316406 69.273438 C 44.753906 71.648438 41.757812 72.617188 38.933594 73 C 36.113281 73.386719 33.1875 73.375 30.5625 74.46875 C 29.664062 74.84375 28.8125 75.402344 28.089844 76.089844 L 18.9375 76.089844 C 17.105469 76.089844 15.613281 74.597656 15.613281 72.769531 L 15.613281 45.15625 C 28.929688 54.148438 43.585938 54.148438 59.585938 45.15625 Z M 59.585938 45.15625 " fill-opacity="0.1" fill-rule="nonzero"/><path fill="#ffffff" d="M 43.167969 51.308594 C 40.484375 52.589844 38.035156 54.5 36.589844 57.097656 C 35.867188 58.378906 35.390625 59.824219 34.410156 60.929688 C 31.960938 63.679688 27.460938 63.25 24.347656 65.21875 C 22.339844 66.5 21.09375 68.65625 20.160156 70.835938 C 19.4375 72.535156 18.867188 74.308594 18.050781 75.960938 C 16.652344 75.589844 15.613281 74.296875 15.613281 72.769531 L 15.613281 45.15625 C 24.230469 50.980469 33.417969 53.03125 43.167969 51.308594 Z M 43.167969 51.308594 " fill-opacity="0.1" fill-rule="nonzero"/><path fill="#ff003b" d="M 57.324219 9.675781 C 46.445312 -1.195312 28.742188 -1.195312 17.875 9.675781 C 7.007812 20.546875 6.996094 38.234375 17.875 49.09375 C 23.308594 54.523438 30.457031 57.25 37.605469 57.25 C 44.753906 57.25 51.890625 54.535156 57.335938 49.09375 C 68.203125 38.222656 68.203125 20.535156 57.324219 9.675781 Z M 52.472656 14.523438 C 59.839844 21.886719 60.5625 33.398438 54.6875 41.601562 L 25.375 12.308594 C 29.023438 9.699219 33.300781 8.371094 37.605469 8.371094 C 42.992188 8.382812 48.367188 10.421875 52.472656 14.523438 Z M 22.726562 44.246094 C 15.355469 36.882812 14.632812 25.371094 20.511719 17.167969 L 49.824219 46.449219 C 41.617188 52.320312 30.105469 51.609375 22.726562 44.246094 Z M 22.726562 44.246094 " fill-opacity="1" fill-rule="nonzero"/><path fill="#000000" d="M 57.324219 9.675781 C 51.585938 3.941406 43.960938 1.238281 36.425781 1.542969 C 43.167969 1.824219 49.835938 4.527344 54.980469 9.675781 C 65.859375 20.535156 65.859375 38.222656 54.980469 49.09375 C 49.835938 54.230469 43.179688 56.945312 36.425781 57.226562 C 36.8125 57.238281 37.207031 57.261719 37.582031 57.261719 C 44.71875 57.261719 51.878906 54.535156 57.3125 49.105469 C 68.203125 38.222656 68.203125 20.535156 57.324219 9.675781 Z M 57.324219 9.675781 " fill-opacity="0.1" fill-rule="nonzero"/><path fill="#ffffff" d="M 57.324219 9.675781 C 46.445312 -1.195312 28.742188 -1.195312 17.875 9.675781 C 6.996094 20.546875 6.996094 38.222656 17.875 49.09375 C 23.121094 54.335938 29.992188 57.0625 36.894531 57.238281 C 38.851562 55.246094 40.34375 52.808594 40.917969 50.117188 C 34.480469 51.144531 27.671875 49.1875 22.726562 44.246094 C 15.355469 36.882812 14.632812 25.371094 20.511719 17.167969 L 44.519531 41.15625 C 44.90625 40.960938 45.300781 40.75 45.664062 40.480469 C 47.328125 39.304688 48.050781 37.324219 48.320312 35.25 L 25.375 12.308594 C 29.023438 9.699219 33.3125 8.371094 37.59375 8.371094 C 42.980469 8.371094 48.367188 10.410156 52.472656 14.511719 C 53.542969 15.582031 54.488281 16.75 55.257812 17.972656 C 57.007812 16.457031 58.78125 15 60.585938 13.578125 C 59.644531 12.214844 58.546875 10.898438 57.324219 9.675781 Z M 57.324219 9.675781 " fill-opacity="0.1" fill-rule="nonzero"/><path fill="#ffffff" d="M 17.875 9.675781 C 7.40625 20.140625 7.007812 36.894531 16.6875 47.824219 C 18.273438 46.027344 19.613281 44 20.640625 41.8125 C 15.285156 34.503906 15.25 24.507812 20.523438 17.15625 L 26.0625 22.691406 C 28.382812 21.945312 30.46875 20.769531 32.40625 19.335938 L 25.375 12.308594 C 29.023438 9.699219 33.3125 8.371094 37.59375 8.371094 C 39.109375 8.371094 40.613281 8.523438 42.09375 8.859375 C 43.515625 6.890625 44.917969 4.875 46.398438 2.941406 C 36.695312 -0.261719 25.570312 1.972656 17.875 9.675781 Z M 17.875 9.675781 " fill-opacity="0.1" fill-rule="nonzero"/><path fill="#ff9f3f" d="M 25.328125 24.332031 L 25.328125 36.136719 L 1.667969 36.136719 C 0.816406 36.136719 0.128906 35.449219 0.128906 34.597656 L 0.128906 25.871094 C 0.128906 25.019531 0.816406 24.332031 1.667969 24.332031 Z M 25.328125 24.332031 " fill-opacity="1" fill-rule="nonzero"/><path fill="#e6e6e6" d="M 25.328125 24.332031 L 72.144531 24.332031 L 72.144531 36.136719 L 25.328125 36.136719 Z M 25.328125 24.332031 " fill-opacity="1" fill-rule="nonzero"/><path fill="#f15a24" d="M 23.789062 24.332031 L 26.867188 24.332031 L 26.867188 36.136719 L 23.789062 36.136719 Z M 23.789062 24.332031 " fill-opacity="1" fill-rule="nonzero"/><path fill="#000000" d="M 25.328125 32.128906 L 72.144531 32.128906 L 72.144531 36.136719 L 25.328125 36.136719 Z M 25.328125 32.128906 " fill-opacity="0.05" fill-rule="nonzero"/><path fill="#000000" d="M 25.328125 32.128906 L 25.328125 36.136719 L 1.667969 36.136719 C 0.816406 36.136719 0.128906 35.449219 0.128906 34.597656 L 0.128906 32.128906 Z M 25.328125 32.128906 " fill-opacity="0.05" fill-rule="nonzero"/><path fill="#ffffff" d="M 72.144531 24.332031 L 72.144531 32.328125 C 67.480469 32.992188 62.699219 32.863281 58.09375 31.894531 C 55.105469 31.277344 52.050781 30.3125 49.089844 30.964844 C 46.339844 31.558594 43.996094 33.480469 41.21875 34.015625 C 36.378906 34.972656 31.53125 31.546875 26.621094 32.234375 C 23.554688 32.664062 20.871094 34.691406 17.804688 35.191406 C 15.53125 35.578125 13.199219 35.109375 10.9375 34.621094 C 8.675781 34.144531 6.34375 33.65625 4.070312 34.003906 C 2.773438 34.214844 1.492188 34.738281 0.476562 35.566406 C 0.269531 35.320312 0.128906 34.972656 0.128906 34.597656 L 0.128906 25.859375 C 0.128906 25.019531 0.816406 24.320312 1.667969 24.320312 L 72.144531 24.320312 Z M 72.144531 24.332031 " fill-opacity="0.1" fill-rule="nonzero"/><path fill="#ffffff" d="M 61.800781 24.332031 C 56.472656 26.476562 51.199219 28.667969 45.582031 28.074219 C 43.003906 27.816406 40.496094 26.964844 37.894531 26.976562 C 33.429688 27.023438 28.90625 29.625 24.695312 28.144531 C 23.132812 27.597656 21.699219 26.5 20.054688 26.511719 C 17.921875 26.523438 16.265625 28.351562 14.261719 29.085938 C 11.019531 30.300781 7.472656 28.585938 4.011719 28.585938 C 2.660156 28.585938 1.339844 28.878906 0.105469 29.402344 L 0.105469 25.871094 C 0.105469 25.03125 0.792969 24.332031 1.644531 24.332031 Z M 61.800781 24.332031 " fill-opacity="0.1" fill-rule="nonzero"/><path fill="#343434" d="M 71.921875 36.53125 C 71.617188 36.460938 71.328125 36.183594 71.304688 35.820312 C 71.269531 35.261719 71.828125 34.902344 71.980469 34.378906 C 72.132812 33.863281 71.875 33.304688 71.558594 32.886719 C 71.257812 32.464844 70.882812 32.082031 70.753906 31.558594 C 70.628906 31.03125 70.929688 30.332031 71.398438 30.378906 C 71.78125 29.679688 71.511719 28.726562 71.09375 28.039062 C 70.675781 27.351562 70.136719 26.746094 69.9375 25.929688 C 69.742188 25.113281 70.148438 24.042969 70.871094 24.054688 C 71.175781 24.066406 71.457031 24.261719 71.757812 24.25 C 72.375 24.214844 72.796875 23.332031 73.414062 23.390625 C 73.765625 23.425781 74.042969 23.761719 74.160156 24.148438 C 74.277344 24.53125 74.253906 24.949219 74.242188 25.359375 C 74.160156 27.128906 74.078125 28.890625 73.996094 30.660156 C 73.972656 31.113281 73.960938 31.59375 74.113281 32.023438 C 74.242188 32.371094 74.476562 32.652344 74.625 32.992188 C 74.777344 33.328125 74.8125 33.78125 74.570312 34.039062 C 74.277344 34.355469 73.71875 34.191406 73.472656 34.5625 C 73.320312 34.785156 73.355469 35.097656 73.425781 35.367188 C 73.484375 35.636719 73.566406 35.914062 73.496094 36.183594 C 73.367188 36.707031 72.257812 36.613281 71.921875 36.53125 Z M 71.921875 36.53125 " fill-opacity="1" fill-rule="nonzero"/><path fill="#ff003b" d="M 20.519531 17.167969 L 25.375 12.316406 L 54.6875 41.605469 L 49.832031 46.457031 Z M 20.519531 17.167969 " fill-opacity="1" fill-rule="nonzero"/><path fill="#ffffff" d="M 20.523438 17.15625 L 44.53125 41.148438 C 44.917969 40.949219 45.3125 40.738281 45.675781 40.472656 C 47.339844 39.292969 48.0625 37.3125 48.332031 35.238281 L 25.375 12.308594 Z M 20.523438 17.15625 " fill-opacity="0.1" fill-rule="nonzero"/><path fill="#ffffff" d="M 20.523438 17.15625 L 26.0625 22.691406 C 28.382812 21.945312 30.46875 20.769531 32.40625 19.335938 L 25.375 12.308594 Z M 20.523438 17.15625 " fill-opacity="0.1" fill-rule="nonzero"/></svg>