<svg xmlns="http://www.w3.org/2000/svg" xmlns:xlink="http://www.w3.org/1999/xlink" width="100" zoomAndPan="magnify" viewBox="0 0 75 74.999997" height="100" preserveAspectRatio="xMidYMid meet" version="1.0"><defs><clipPath id="32f0278c6d"><path d="M 1.875 0.394531 L 73.125 0.394531 L 73.125 72 L 1.875 72 Z M 1.875 0.394531 " clip-rule="nonzero"/></clipPath><clipPath id="e62e695385"><path d="M 36 0.394531 L 38 0.394531 L 38 9 L 36 9 Z M 36 0.394531 " clip-rule="nonzero"/></clipPath><clipPath id="2edeecf297"><path d="M 36 0.394531 L 38 0.394531 L 38 9 L 36 9 Z M 36 0.394531 " clip-rule="nonzero"/></clipPath><clipPath id="06c0b668d5"><path d="M 13 57 L 63 57 L 63 74.644531 L 13 74.644531 Z M 13 57 " clip-rule="nonzero"/></clipPath><clipPath id="a035298fe5"><path d="M 27.835938 49 L 45.132812 49 L 45.132812 59 L 27.835938 59 Z M 27.835938 49 " clip-rule="nonzero"/></clipPath><clipPath id="9cae01b728"><path d="M 26.679688 32.859375 L 27.25 66.734375 L 46.078125 66.421875 L 45.507812 32.546875 Z M 26.679688 32.859375 " clip-rule="nonzero"/></clipPath></defs><g clip-path="url(#32f0278c6d)"><path fill="#fbeae4" d="M 73.121094 35.84375 C 73.121094 55.421875 57.175781 71.292969 37.503906 71.292969 C 17.832031 71.292969 1.886719 55.421875 1.886719 35.84375 C 1.886719 16.265625 17.832031 0.394531 37.503906 0.394531 C 57.175781 0.394531 73.121094 16.265625 73.121094 35.84375 " fill-opacity="1" fill-rule="nonzero"/></g><path fill="#f6ac6e" d="M 48.554688 23.15625 C 47.972656 29.816406 42.078125 34.742188 35.386719 34.164062 C 28.699219 33.582031 23.746094 27.714844 24.332031 21.054688 C 24.914062 14.398438 30.808594 9.46875 37.5 10.050781 C 44.1875 10.628906 49.140625 16.5 48.554688 23.15625 " fill-opacity="1" fill-rule="evenodd"/><g clip-path="url(#e62e695385)"><path fill="#f6ac6e" d="M 37.222656 7.570312 C 37.28125 6.5 37.34375 5.429688 37.40625 4.359375 C 37.433594 3.835938 37.464844 3.308594 37.496094 2.78125 C 37.527344 2.226562 37.605469 1.664062 37.523438 1.109375 C 37.449219 0.625 36.632812 0.460938 36.5 0.996094 C 36.367188 1.527344 36.371094 2.054688 36.347656 2.597656 C 36.324219 3.144531 36.300781 3.6875 36.277344 4.234375 C 36.230469 5.304688 36.183594 6.378906 36.140625 7.449219 C 36.125 7.742188 36.3125 8.015625 36.621094 8.050781 C 36.898438 8.082031 37.207031 7.863281 37.222656 7.570312 " fill-opacity="1" fill-rule="nonzero"/></g><path fill="#f6ac6e" d="M 44.164062 9.808594 C 44.753906 8.910156 45.34375 8.015625 45.933594 7.117188 C 46.222656 6.675781 46.511719 6.234375 46.800781 5.792969 C 47.105469 5.328125 47.457031 4.878906 47.664062 4.359375 C 47.84375 3.902344 47.21875 3.355469 46.832031 3.753906 C 46.453125 4.144531 46.191406 4.605469 45.898438 5.066406 C 45.605469 5.527344 45.3125 5.988281 45.019531 6.445312 C 44.441406 7.355469 43.863281 8.257812 43.285156 9.164062 C 43.128906 9.414062 43.15625 9.742188 43.402344 9.925781 C 43.628906 10.089844 44.003906 10.054688 44.164062 9.808594 " fill-opacity="1" fill-rule="nonzero"/><path fill="#f6ac6e" d="M 49.0625 15.195312 C 50.023438 14.707031 50.980469 14.222656 51.941406 13.738281 C 52.414062 13.5 52.886719 13.257812 53.359375 13.019531 C 53.855469 12.769531 54.386719 12.554688 54.824219 12.207031 C 55.210938 11.898438 54.941406 11.113281 54.40625 11.269531 C 53.882812 11.421875 53.425781 11.6875 52.941406 11.941406 C 52.457031 12.195312 51.972656 12.449219 51.484375 12.703125 C 50.53125 13.203125 49.578125 13.703125 48.621094 14.199219 C 48.363281 14.335938 48.21875 14.632812 48.34375 14.914062 C 48.457031 15.171875 48.796875 15.328125 49.0625 15.195312 " fill-opacity="1" fill-rule="nonzero"/><path fill="#f6ac6e" d="M 50.605469 22.292969 C 51.683594 22.347656 52.757812 22.402344 53.832031 22.460938 C 54.363281 22.488281 54.890625 22.515625 55.421875 22.542969 C 55.976562 22.570312 56.542969 22.648438 57.097656 22.5625 C 57.585938 22.488281 57.746094 21.675781 57.207031 21.542969 C 56.675781 21.414062 56.144531 21.417969 55.597656 21.398438 C 55.050781 21.378906 54.503906 21.359375 53.957031 21.335938 C 52.878906 21.296875 51.800781 21.253906 50.722656 21.214844 C 50.429688 21.203125 50.15625 21.390625 50.125 21.695312 C 50.09375 21.972656 50.3125 22.277344 50.605469 22.292969 " fill-opacity="1" fill-rule="nonzero"/><path fill="#f6ac6e" d="M 48.390625 29.210938 C 49.292969 29.792969 50.199219 30.378906 51.101562 30.960938 C 51.546875 31.246094 51.992188 31.53125 52.4375 31.820312 C 52.90625 32.121094 53.359375 32.46875 53.882812 32.667969 C 54.339844 32.847656 54.886719 32.222656 54.488281 31.839844 C 54.089844 31.460938 53.625 31.203125 53.164062 30.917969 C 52.699219 30.628906 52.234375 30.335938 51.773438 30.046875 C 50.859375 29.476562 49.945312 28.90625 49.03125 28.335938 C 48.785156 28.179688 48.453125 28.207031 48.269531 28.453125 C 48.105469 28.679688 48.140625 29.050781 48.390625 29.210938 " fill-opacity="1" fill-rule="nonzero"/><path fill="#f6ac6e" d="M 43 34.109375 C 43.492188 35.0625 43.984375 36.015625 44.476562 36.96875 C 44.71875 37.4375 44.960938 37.90625 45.203125 38.378906 C 45.457031 38.871094 45.675781 39.394531 46.027344 39.832031 C 46.339844 40.214844 47.125 39.945312 46.96875 39.414062 C 46.8125 38.886719 46.542969 38.433594 46.285156 37.957031 C 46.027344 37.476562 45.769531 36.992188 45.515625 36.511719 C 45.007812 35.5625 44.503906 34.617188 43.996094 33.667969 C 43.859375 33.410156 43.558594 33.269531 43.277344 33.394531 C 43.019531 33.507812 42.867188 33.847656 43 34.109375 " fill-opacity="1" fill-rule="nonzero"/><path fill="#f6ac6e" d="M 35.875 35.679688 C 35.824219 36.75 35.773438 37.820312 35.722656 38.890625 C 35.695312 39.417969 35.671875 39.945312 35.644531 40.472656 C 35.621094 41.027344 35.546875 41.589844 35.632812 42.140625 C 35.710938 42.625 36.527344 42.78125 36.65625 42.246094 C 36.785156 41.714844 36.777344 41.1875 36.792969 40.644531 C 36.8125 40.097656 36.832031 39.554688 36.851562 39.007812 L 36.960938 35.792969 C 36.96875 35.5 36.78125 35.226562 36.472656 35.195312 C 36.195312 35.167969 35.890625 35.386719 35.875 35.679688 " fill-opacity="1" fill-rule="nonzero"/><path fill="#f6ac6e" d="M 28.914062 33.503906 C 28.332031 34.40625 27.753906 35.308594 27.171875 36.210938 C 26.886719 36.65625 26.601562 37.097656 26.3125 37.542969 C 26.011719 38.011719 25.667969 38.460938 25.464844 38.984375 C 25.289062 39.441406 25.917969 39.984375 26.300781 39.582031 C 26.679688 39.1875 26.9375 38.726562 27.222656 38.261719 C 27.511719 37.796875 27.800781 37.335938 28.089844 36.871094 C 28.660156 35.960938 29.230469 35.050781 29.796875 34.136719 C 29.953125 33.890625 29.925781 33.5625 29.675781 33.382812 C 29.445312 33.21875 29.074219 33.257812 28.914062 33.503906 " fill-opacity="1" fill-rule="nonzero"/><path fill="#f6ac6e" d="M 23.96875 28.160156 C 23.015625 28.65625 22.058594 29.148438 21.101562 29.644531 C 20.632812 29.886719 20.160156 30.128906 19.691406 30.371094 C 19.195312 30.628906 18.667969 30.847656 18.234375 31.199219 C 17.851562 31.511719 18.125 32.292969 18.65625 32.132812 C 19.183594 31.976562 19.640625 31.703125 20.121094 31.445312 C 20.601562 31.1875 21.085938 30.929688 21.566406 30.671875 C 22.519531 30.164062 23.46875 29.660156 24.417969 29.152344 C 24.675781 29.011719 24.816406 28.714844 24.691406 28.433594 C 24.574219 28.175781 24.230469 28.027344 23.96875 28.160156 " fill-opacity="1" fill-rule="nonzero"/><path fill="#f6ac6e" d="M 22.359375 21.078125 C 21.285156 21.03125 20.207031 20.984375 19.132812 20.9375 L 17.542969 20.871094 C 16.988281 20.84375 16.421875 20.773438 15.867188 20.863281 C 15.378906 20.941406 15.226562 21.757812 15.765625 21.882812 C 16.300781 22.007812 16.832031 22 17.378906 22.011719 C 17.925781 22.027344 18.472656 22.046875 19.019531 22.0625 C 20.097656 22.09375 21.175781 22.125 22.253906 22.15625 C 22.546875 22.164062 22.816406 21.976562 22.847656 21.671875 C 22.878906 21.390625 22.65625 21.089844 22.359375 21.078125 " fill-opacity="1" fill-rule="nonzero"/><path fill="#f6ac6e" d="M 24.515625 14.136719 C 23.605469 13.5625 22.699219 12.988281 21.789062 12.414062 C 21.339844 12.132812 20.894531 11.851562 20.445312 11.566406 C 19.976562 11.269531 19.519531 10.925781 18.996094 10.730469 C 18.53125 10.554688 17.992188 11.183594 18.398438 11.5625 C 18.796875 11.9375 19.261719 12.191406 19.726562 12.476562 C 20.195312 12.761719 20.660156 13.046875 21.128906 13.332031 C 22.046875 13.894531 22.964844 14.457031 23.882812 15.019531 C 24.132812 15.171875 24.460938 15.144531 24.640625 14.894531 C 24.804688 14.667969 24.765625 14.296875 24.515625 14.136719 " fill-opacity="1" fill-rule="nonzero"/><path fill="#f6ac6e" d="M 29.859375 9.195312 C 29.359375 8.246094 28.859375 7.296875 28.359375 6.347656 C 28.113281 5.878906 27.867188 5.414062 27.621094 4.945312 C 27.363281 4.453125 27.140625 3.929688 26.78125 3.5 C 26.46875 3.117188 25.6875 3.394531 25.847656 3.925781 C 26.007812 4.449219 26.28125 4.898438 26.542969 5.375 C 26.804688 5.855469 27.066406 6.335938 27.328125 6.8125 C 27.839844 7.757812 28.355469 8.699219 28.871094 9.644531 C 29.007812 9.902344 29.3125 10.039062 29.589844 9.914062 C 29.847656 9.796875 29.996094 9.453125 29.859375 9.195312 " fill-opacity="1" fill-rule="nonzero"/><g clip-path="url(#2edeecf297)"><path fill="#f6ac6e" d="M 37.222656 7.570312 C 37.28125 6.5 37.34375 5.429688 37.40625 4.359375 C 37.433594 3.835938 37.464844 3.308594 37.496094 2.78125 C 37.527344 2.226562 37.605469 1.664062 37.523438 1.109375 C 37.449219 0.625 36.632812 0.460938 36.5 0.996094 C 36.367188 1.527344 36.371094 2.054688 36.347656 2.597656 C 36.324219 3.144531 36.300781 3.6875 36.277344 4.234375 C 36.230469 5.304688 36.183594 6.378906 36.140625 7.449219 C 36.125 7.742188 36.3125 8.015625 36.621094 8.050781 C 36.898438 8.082031 37.207031 7.863281 37.222656 7.570312 " fill-opacity="1" fill-rule="nonzero"/></g><g clip-path="url(#06c0b668d5)"><path fill="#d3747a" d="M 28.429688 57.621094 C 28.429688 57.621094 20.628906 61.910156 13.480469 65.839844 C 11.488281 66.933594 19.878906 74.644531 37.230469 74.597656 C 53.09375 74.550781 65.382812 66.980469 61.453125 65.042969 C 53.949219 61.335938 45.628906 57.8125 45.628906 57.8125 Z M 28.429688 57.621094 " fill-opacity="1" fill-rule="evenodd"/></g><path fill="#d3747a" d="M 27.835938 33.425781 L 45.132812 33.425781 L 45.132812 66.109375 L 27.835938 66.109375 Z M 27.835938 33.425781 " fill-opacity="1" fill-rule="evenodd"/><g clip-path="url(#a035298fe5)"><g clip-path="url(#9cae01b728)"><path fill="#000000" d="M 26.550781 50.308594 C 26.550781 50.308594 34.386719 57.773438 43.386719 52.082031 L 46.910156 49.96875 C 46.910156 49.96875 42.65625 58.535156 36.898438 58.640625 C 30.636719 58.753906 28.117188 54.058594 26.550781 50.308594 " fill-opacity="1" fill-rule="evenodd"/></g></g><path fill="#d3747a" d="M 54.03125 23.398438 C 54.03125 23.398438 54.144531 25.121094 54.144531 26.03125 C 54.144531 39.429688 47.367188 55.097656 35.652344 55.097656 C 25.601562 55.097656 17.726562 39.429688 17.726562 26.03125 C 17.726562 25.105469 17.835938 23.363281 17.835938 23.363281 Z M 54.03125 23.398438 " fill-opacity="1" fill-rule="evenodd"/><path fill="#d3747a" d="M 19.03125 33.242188 C 19.03125 33.242188 16.769531 27.449219 13.75 29.691406 C 10.726562 31.9375 15.503906 42.832031 21.496094 42.503906 Z M 19.03125 33.242188 " fill-opacity="1" fill-rule="evenodd"/><path fill="#d3747a" d="M 52.308594 33.242188 C 52.308594 33.242188 54.671875 27.449219 57.832031 29.691406 C 60.988281 31.9375 56.550781 42.40625 50.289062 42.078125 Z M 52.308594 33.242188 " fill-opacity="1" fill-rule="evenodd"/><path fill="#000000" d="M 19.453125 38.195312 C 19.484375 38.183594 19.464844 38.210938 19.480469 38.183594 C 19.496094 38.15625 19.472656 38.125 19.472656 38.09375 C 19.441406 37.8125 19.402344 37.515625 19.347656 37.207031 C 19.214844 36.472656 18.996094 35.695312 18.695312 34.972656 C 18.390625 34.242188 17.992188 33.574219 17.484375 33.066406 C 17.332031 32.914062 17.164062 32.777344 16.988281 32.648438 C 16.820312 32.523438 16.640625 32.40625 16.464844 32.296875 C 16.339844 32.21875 16.207031 32.148438 16.074219 32.085938 C 15.9375 32.019531 15.796875 31.964844 15.652344 31.925781 C 14.742188 31.695312 14.160156 32.023438 13.832031 32.59375 C 13.382812 33.363281 13.421875 34.597656 13.632812 35.335938 C 13.6875 35.542969 13.730469 35.675781 13.777344 35.804688 C 13.84375 35.980469 13.917969 36.148438 14.050781 36.476562 C 14.058594 36.5 14.085938 36.515625 14.109375 36.503906 C 14.136719 36.496094 14.148438 36.46875 14.140625 36.445312 C 14.027344 36.109375 13.960938 35.941406 13.90625 35.761719 C 13.871094 35.632812 13.835938 35.5 13.796875 35.300781 C 13.671875 34.609375 13.738281 33.492188 14.195312 32.824219 C 14.460938 32.4375 14.875 32.230469 15.511719 32.425781 C 15.632812 32.457031 15.75 32.496094 15.867188 32.546875 C 15.984375 32.597656 16.097656 32.652344 16.210938 32.71875 C 16.382812 32.816406 16.554688 32.917969 16.722656 33.027344 C 16.882812 33.136719 17.039062 33.253906 17.183594 33.382812 C 17.679688 33.828125 18.078125 34.4375 18.394531 35.105469 C 18.722656 35.792969 18.957031 36.546875 19.132812 37.253906 C 19.203125 37.550781 19.273438 37.839844 19.324219 38.117188 C 19.328125 38.144531 19.320312 38.183594 19.339844 38.203125 C 19.363281 38.226562 19.335938 38.203125 19.371094 38.207031 C 19.375 38.230469 19.394531 38.246094 19.417969 38.242188 C 19.441406 38.238281 19.457031 38.21875 19.453125 38.195312 " fill-opacity="1" fill-rule="evenodd"/><path fill="#000000" d="M 16.992188 32.9375 C 16.957031 32.925781 16.9375 32.914062 16.902344 32.910156 C 16.777344 32.898438 16.664062 32.949219 16.5625 33 C 16.367188 33.097656 16.214844 33.261719 16.085938 33.449219 C 15.785156 33.894531 15.660156 34.519531 15.632812 34.941406 C 15.585938 35.980469 15.800781 37.136719 16.257812 38.183594 C 16.484375 38.695312 16.761719 39.1875 17.101562 39.617188 C 17.457031 40.0625 17.875 40.4375 18.339844 40.738281 C 18.394531 40.78125 18.476562 40.765625 18.519531 40.707031 C 18.558594 40.652344 18.546875 40.570312 18.488281 40.53125 C 18.078125 40.214844 17.726562 39.816406 17.410156 39.386719 C 17.105469 38.964844 16.835938 38.507812 16.621094 38.023438 C 16.183594 37.03125 15.953125 35.941406 15.980469 34.957031 C 15.984375 34.574219 16.0625 34.007812 16.308594 33.585938 C 16.402344 33.425781 16.523438 33.292969 16.671875 33.195312 C 16.75 33.140625 16.839844 33.109375 16.929688 33.066406 C 16.957031 33.054688 16.972656 33.035156 17 33.019531 C 17.023438 33.015625 17.039062 32.996094 17.035156 32.972656 C 17.035156 32.949219 17.015625 32.933594 16.992188 32.9375 " fill-opacity="1" fill-rule="evenodd"/><path fill="#000000" d="M 51.03125 39.765625 C 51.101562 39.734375 51.125 39.757812 51.179688 39.699219 C 51.425781 39.460938 51.457031 39.078125 51.585938 38.761719 C 51.871094 38.070312 52.140625 37.367188 52.417969 36.667969 C 52.695312 35.984375 52.976562 35.300781 53.316406 34.644531 C 53.675781 33.960938 54.082031 33.296875 54.601562 32.691406 C 54.726562 32.53125 54.882812 32.402344 55.046875 32.292969 C 55.480469 32.007812 56 31.851562 56.464844 31.953125 C 56.929688 32.054688 57.3125 32.382812 57.472656 32.949219 C 57.472656 32.957031 57.480469 32.960938 57.488281 32.960938 C 57.496094 32.957031 57.503906 32.949219 57.5 32.941406 C 57.378906 32.136719 56.789062 31.746094 56.125 31.640625 C 55.644531 31.566406 55.117188 31.636719 54.667969 31.878906 C 54.46875 31.984375 54.296875 32.128906 54.144531 32.292969 C 53.386719 33.136719 52.816406 34.082031 52.367188 35.082031 C 52.152344 35.558594 51.964844 36.046875 51.796875 36.542969 C 51.546875 37.28125 51.332031 38.027344 51.113281 38.769531 C 51.042969 39.019531 50.976562 39.265625 50.902344 39.511719 C 50.894531 39.535156 50.878906 39.558594 50.882812 39.585938 C 50.886719 39.664062 50.917969 39.664062 50.953125 39.734375 C 50.945312 39.757812 50.957031 39.78125 50.976562 39.789062 C 50.996094 39.796875 51.023438 39.785156 51.03125 39.765625 " fill-opacity="1" fill-rule="evenodd"/><path fill="#000000" d="M 53.492188 33.300781 C 53.402344 33.378906 53.550781 33.195312 53.511719 33.414062 C 53.488281 33.414062 53.472656 33.433594 53.472656 33.457031 C 53.472656 33.480469 53.492188 33.496094 53.515625 33.496094 C 53.574219 33.710938 53.410156 33.542969 53.503906 33.609375 C 53.515625 33.617188 53.53125 33.628906 53.554688 33.648438 C 53.585938 33.675781 53.632812 33.65625 53.671875 33.660156 C 54.140625 33.714844 54.503906 33.953125 54.765625 34.285156 C 55.054688 34.648438 55.210938 35.132812 55.144531 35.617188 C 55.050781 36.402344 54.742188 37.078125 54.3125 37.691406 C 53.878906 38.308594 53.324219 38.867188 52.710938 39.386719 C 52.652344 39.433594 52.640625 39.523438 52.691406 39.582031 C 52.738281 39.644531 52.828125 39.65625 52.890625 39.605469 C 53.707031 39.007812 54.453125 38.355469 54.976562 37.558594 C 55.339844 37.007812 55.589844 36.390625 55.703125 35.695312 C 55.796875 35.054688 55.613281 34.390625 55.203125 33.921875 C 54.839844 33.503906 54.308594 33.230469 53.691406 33.246094 C 53.640625 33.25 53.578125 33.222656 53.542969 33.257812 C 53.519531 33.277344 53.503906 33.292969 53.492188 33.300781 " fill-opacity="1" fill-rule="evenodd"/></svg>