<svg xmlns="http://www.w3.org/2000/svg" xmlns:xlink="http://www.w3.org/1999/xlink" width="100" zoomAndPan="magnify" viewBox="0 0 75 74.999997" height="100" preserveAspectRatio="xMidYMid meet" version="1.0"><defs><clipPath id="cbf19335f5"><path d="M 0 5.644531 L 64 5.644531 L 64 69.394531 L 0 69.394531 Z M 0 5.644531 " clip-rule="nonzero"/></clipPath></defs><g clip-path="url(#cbf19335f5)"><path fill="#edf4e0" d="M 63.871094 37.519531 C 63.871094 55.117188 49.574219 69.378906 31.9375 69.378906 C 14.300781 69.378906 0.00390625 55.117188 0.00390625 37.519531 C 0.00390625 19.925781 14.300781 5.664062 31.9375 5.664062 C 49.574219 5.664062 63.871094 19.925781 63.871094 37.519531 " fill-opacity="1" fill-rule="nonzero"/><path fill="#dd3d4e" d="M 31.9375 5.664062 C 14.300781 5.664062 0.00390625 19.925781 0.00390625 37.519531 C 0.00390625 55.117188 14.300781 69.378906 31.9375 69.378906 C 49.574219 69.378906 63.871094 55.117188 63.871094 37.519531 C 63.871094 19.925781 49.574219 5.664062 31.9375 5.664062 Z M 31.9375 12.035156 C 46.023438 12.035156 57.484375 23.46875 57.484375 37.519531 C 57.484375 51.574219 46.023438 63.007812 31.9375 63.007812 C 17.847656 63.007812 6.386719 51.574219 6.386719 37.519531 C 6.386719 23.46875 17.847656 12.035156 31.9375 12.035156 " fill-opacity="1" fill-rule="nonzero"/></g><path fill="#dd3d4e" d="M 31.9375 18.40625 C 21.355469 18.40625 12.777344 26.964844 12.777344 37.519531 C 12.777344 48.078125 21.355469 56.636719 31.9375 56.636719 C 42.519531 56.636719 51.097656 48.078125 51.097656 37.519531 C 51.097656 26.964844 42.519531 18.40625 31.9375 18.40625 Z M 31.9375 24.777344 C 38.976562 24.777344 44.710938 30.492188 44.710938 37.519531 C 44.710938 44.546875 38.976562 50.265625 31.9375 50.265625 C 24.894531 50.265625 19.164062 44.546875 19.164062 37.519531 C 19.164062 30.492188 24.894531 24.777344 31.9375 24.777344 " fill-opacity="1" fill-rule="nonzero"/><path fill="#dd3d4e" d="M 38.320312 37.519531 C 38.320312 41.039062 35.464844 43.890625 31.933594 43.890625 C 28.410156 43.890625 25.550781 41.039062 25.550781 37.519531 C 25.550781 34.003906 28.410156 31.148438 31.933594 31.148438 C 35.464844 31.148438 38.320312 34.003906 38.320312 37.519531 " fill-opacity="1" fill-rule="nonzero"/><path fill="#c76528" d="M 67.457031 17.355469 C 69.644531 21.132812 79.503906 19.535156 70.851562 24.519531 C 62.195312 29.503906 53.410156 30.484375 51.222656 26.707031 C 49.039062 22.929688 54.28125 15.828125 62.933594 10.84375 C 71.589844 5.859375 65.269531 13.578125 67.457031 17.355469 " fill-opacity="1" fill-rule="nonzero"/><path fill="#50616c" d="M 31.9375 39.089844 C 31.496094 39.089844 31.066406 38.859375 30.828125 38.453125 C 30.476562 37.84375 30.6875 37.0625 31.296875 36.710938 L 67.800781 15.6875 C 68.40625 15.332031 69.191406 15.542969 69.542969 16.152344 C 69.898438 16.761719 69.6875 17.542969 69.074219 17.894531 L 32.574219 38.917969 C 32.375 39.035156 32.152344 39.089844 31.9375 39.089844 " fill-opacity="1" fill-rule="nonzero"/></svg>